<?xml version="1.0" encoding="utf-8"?>
<!-- Generator: Adobe Illustrator 16.0.0, SVG Export Plug-In . SVG Version: 6.00 Build 0)  -->
<!DOCTYPE svg PUBLIC "-//W3C//DTD SVG 1.1//EN" "http://www.w3.org/Graphics/SVG/1.1/DTD/svg11.dtd">
<svg version="1.1" id="Layer_1" xmlns="http://www.w3.org/2000/svg" xmlns:xlink="http://www.w3.org/1999/xlink" x="0px" y="0px"
	 width="88px" height="26px" viewBox="0 0 88 26" enable-background="new 0 0 88 26" xml:space="preserve">
<g>
	<path display="none" fill-rule="evenodd" clip-rule="evenodd" fill="#FCFBFB" d="M0.128,7c0-2.333,0-4.667,0-7c7,0,14,0,21,0
		c-0.073,1.457-0.491,3.035-0.044,4.31c0.169,0.485,3.284,0.643,3.408,0.318C25.035,3.212,24.972,1.564,25.128,0
		c1.667,0,3.333,0,5,0c0,8.57,0,17.141,0,25.855c2.067,0,3.657,0,6,0c0-8.734,0-17.295,0-25.855c17.334,0,34.667,0,52,0
		c0,7.333,0,14.666,0,22c-0.756-0.311-1.535-0.922-2.26-0.863c-1.219,0.098-2.57,0.387-3.525,1.072c-0.439,0.316-0.439,2.268,0,2.58
		c0.953,0.68,2.305,0.961,3.521,1.058c0.729,0.058,1.508-0.542,2.264-0.847c0.611,3.048-1.703,1.965-2.973,1.967
		C65.264,27.014,45.371,27,25.48,27c-7.625,0-15.25,0.006-22.876-0.006C1.271,26.992-0.493,27.457,0.128,25
		c3.102,0.328,6.204,0.911,9.307,0.918c3.569,0.008,6.613-1.531,7.49-5.271c0.947-4.045-1.373-6.508-4.85-8.198
		c-2.09-1.016-4.062-2.277-6.086-3.428c0.151-0.636,0.302-1.273,0.453-1.91c3.169,0,6.338,0,9.416,0
		c0.993-3.719-0.496-5.032-4.237-5.206C6.793,1.681,2.917,2.942,0.128,7z M77.826,25.828c0-3.979,0.561-7.885-0.221-11.502
		c-0.438-2.028-2.848-4.659-4.807-5.108c-3.6-0.824-7.521-0.235-11.404-0.235c0,5.895,0,11.313,0,16.84c1.818,0,3.41,0,5.496,0
		c0-3.323-0.273-6.483,0.139-9.552c0.156-1.172,1.887-2.131,2.9-3.187c0.771,1.092,2.092,2.128,2.209,3.286
		c0.313,3.084,0.105,6.222,0.105,9.457C74.361,25.828,75.955,25.828,77.826,25.828z M48.305,26.018
		c5.598,0.051,9.455-3.404,9.516-8.525c0.061-5.007-3.516-8.418-8.92-8.51c-5.815-0.099-9.531,3.058-9.713,8.254
		C39,22.549,42.548,25.967,48.305,26.018z M20.454,9.136c0,5.702,0,11.229,0,16.971c1.896-0.115,3.483-0.211,5.159-0.313
		c0-5.711,0-11.099,0-16.659C23.774,9.136,22.184,9.136,20.454,9.136z"/>
	<path fill-rule="evenodd" clip-rule="evenodd" fill="#0A0A0A" d="M0.128,7C2.917,2.942,6.793,1.681,11.62,1.905
		c3.741,0.174,5.23,1.487,4.237,5.206c-3.078,0-6.247,0-9.416,0C6.291,7.748,6.14,8.384,5.989,9.021
		c2.025,1.151,3.997,2.412,6.086,3.428c3.477,1.69,5.797,4.153,4.85,8.198c-0.876,3.74-3.92,5.279-7.49,5.271
		C6.332,25.911,3.23,25.328,0.128,25c0-1.334,0-2.666,0-4c2.246,0.332,4.5,0.956,6.733,0.889c1.422-0.042,2.813-1.11,4.218-1.719
		c-0.889-1.182-1.579-2.621-2.708-3.494C5.736,14.639,2.89,12.875,0.128,11C0.128,9.667,0.128,8.333,0.128,7z"/>
	<path fill-rule="evenodd" clip-rule="evenodd" fill="#171717" d="M36.128,0c0,8.56,0,17.121,0,25.855c-2.343,0-3.933,0-6,0
		c0-8.715,0-17.285,0-25.855C32.128,0,34.128,0,36.128,0z"/>
	<path display="none" fill-rule="evenodd" clip-rule="evenodd" fill="#F4F4F4" d="M0.128,11c2.761,1.875,5.608,3.639,8.244,5.676
		c1.129,0.873,1.819,2.313,2.708,3.494c-1.405,0.608-2.796,1.677-4.218,1.719C4.628,21.956,2.374,21.332,0.128,21
		C0.128,17.666,0.128,14.334,0.128,11z"/>
	<path fill-rule="evenodd" clip-rule="evenodd" fill="#FE6161" d="M88.129,25c-0.756,0.305-1.535,0.904-2.264,0.847
		c-1.217-0.097-2.568-0.378-3.521-1.058c-0.439-0.313-0.439-2.264,0-2.58c0.955-0.686,2.307-0.975,3.525-1.072
		c0.725-0.059,1.504,0.553,2.26,0.863C88.129,23,88.129,24,88.129,25z"/>
	<path fill-rule="evenodd" clip-rule="evenodd" fill="#101010" d="M25.128,0c-0.157,1.564-0.094,3.212-0.636,4.628
		c-0.124,0.324-3.239,0.167-3.408-0.318C20.638,3.035,21.055,1.457,21.128,0C22.462,0,23.795,0,25.128,0z"/>
	<path fill-rule="evenodd" clip-rule="evenodd" fill="#131313" d="M77.826,25.828c-1.871,0-3.465,0-5.582,0
		c0-3.235,0.207-6.373-0.105-9.457c-0.117-1.158-1.438-2.194-2.209-3.286c-1.014,1.056-2.744,2.015-2.9,3.187
		c-0.412,3.068-0.139,6.229-0.139,9.552c-2.086,0-3.678,0-5.496,0c0-5.526,0-10.945,0-16.84c3.883,0,7.805-0.589,11.404,0.235
		c1.959,0.449,4.369,3.08,4.807,5.108C78.387,17.943,77.826,21.85,77.826,25.828z"/>
	<path fill-rule="evenodd" clip-rule="evenodd" fill="#0C0C0C" d="M48.305,26.018c-5.756-0.051-9.305-3.469-9.118-8.781
		c0.183-5.196,3.898-8.354,9.713-8.254c5.404,0.092,8.98,3.503,8.92,8.51C57.76,22.613,53.902,26.068,48.305,26.018z M54.033,17.565
		c-2.525-2.16-3.787-4.11-5.34-4.38c-2.889-0.501-4.32,1.831-3.737,4.353c0.383,1.649,2.211,4.165,3.356,4.146
		C49.877,21.658,51.406,19.592,54.033,17.565z"/>
	<path fill-rule="evenodd" clip-rule="evenodd" fill="#171717" d="M20.454,9.136c1.73,0,3.32,0,5.159,0c0,5.56,0,10.948,0,16.659
		c-1.676,0.102-3.263,0.197-5.159,0.313C20.454,20.365,20.454,14.838,20.454,9.136z"/>
	<path display="none" fill-rule="evenodd" clip-rule="evenodd" fill="#F4F4F4" d="M54.033,17.565
		c-2.627,2.026-4.156,4.093-5.721,4.118c-1.145,0.02-2.973-2.496-3.356-4.146c-0.583-2.521,0.848-4.854,3.737-4.353
		C50.246,13.455,51.508,15.405,54.033,17.565z"/>
</g>
</svg>
